<?xml version="1.0" encoding="UTF-8" standalone="no"?>
<!-- Created with Inkscape (http://www.inkscape.org/) -->

<svg
   width="210mm"
   height="297mm"
   viewBox="0 0 210 297"
   version="1.1"
   id="svg1028"
   inkscape:version="1.2.1 (9c6d41e410, 2022-07-14)"
   sodipodi:docname="logo-m.svg"
   xmlns:inkscape="http://www.inkscape.org/namespaces/inkscape"
   xmlns:sodipodi="http://sodipodi.sourceforge.net/DTD/sodipodi-0.dtd"
   xmlns="http://www.w3.org/2000/svg"
   xmlns:svg="http://www.w3.org/2000/svg">
  <sodipodi:namedview
     id="namedview1030"
     pagecolor="#ffffff"
     bordercolor="#000000"
     borderopacity="0.25"
     inkscape:showpageshadow="2"
     inkscape:pageopacity="0.0"
     inkscape:pagecheckerboard="0"
     inkscape:deskcolor="#d1d1d1"
     inkscape:document-units="mm"
     showgrid="false"
     inkscape:zoom="0.75455247"
     inkscape:cx="398.24931"
     inkscape:cy="291.56355"
     inkscape:window-width="1920"
     inkscape:window-height="1027"
     inkscape:window-x="-8"
     inkscape:window-y="22"
     inkscape:window-maximized="1"
     inkscape:current-layer="layer1" />
  <defs
     id="defs1025" />
  <g
     inkscape:label="Слой 1"
     inkscape:groupmode="layer"
     id="layer1">
    <g
       id="g53"
       transform="matrix(0.08528854,0,0,0.08787333,99.466335,58.329513)">
      <svg
         viewBox="0 0 109.42664 109.42664"
         height="109.42664"
         width="109.42664"
         version="1.1"
         id="svg51">
        <g
           id="g21">
          <svg
             version="1.1"
             id="svg19"
             width="100%"
             height="100%" />
        </g>
        <g
           id="icon-0">
          <svg
             viewBox="0 0 109.42664 109.42664"
             height="109.42664"
             width="109.42664"
             version="1.1"
             id="svg48">
            <g
               id="g27">
              <path
                 d="M 0,54.713 C 0,24.496 24.496,0 54.713,0 c 30.217,0 54.713,24.496 54.714,54.713 0,30.217 -24.496,54.713 -54.714,54.714 C 24.496,109.427 0,84.931 0,54.713 Z m 54.713,49.254 c 27.202,0 49.254,-22.052 49.254,-49.254 C 103.967,27.511 81.915,5.459 54.713,5.46 27.511,5.46 5.459,27.512 5.46,54.713 c 0,27.202 22.052,49.254 49.253,49.254 z"
                 data-fill-palette-color="accent"
                 fill="#454545"
                 stroke="transparent"
                 id="path23" />
              <circle
                 cx="54.713318"
                 cy="54.713318"
                 fill="#454545"
                 stroke="transparent"
                 stroke-width="0"
                 fill-opacity="1"
                 data-fill-palette-color="accent"
                 id="ellipse25"
                 r="54.166183" />
            </g>
            <g
               transform="translate(24.088569,31.438509)"
               id="g46">
              <svg
                 viewBox="0 0 61.249498 46.549618"
                 height="46.549618"
                 width="61.249496"
                 version="1.1"
                 id="svg44">
                <g
                   id="g42">
                  <svg
                     version="1.1"
                     x="0"
                     y="0"
                     viewBox="0 13 100 76"
                     enable-background="new 0 0 100 100"
                     xml:space="preserve"
                     height="46.549618"
                     width="61.249496"
                     class="icon-gn-0"
                     data-fill-palette-color="quaternary"
                     id="gn-0"><g
                       fill="#3f9c51"
                       data-fill-palette-color="quaternary"
                       id="g39"><g
                         fill="#3f9c51"
                         data-fill-palette-color="quaternary"
                         id="g37"><g
                           fill="#3f9c51"
                           data-fill-palette-color="quaternary"
                           id="g31"><path
                             d="m 49.72,35.093 c -8.964,0 -16.231,7.268 -16.231,16.231 0,8.963 7.268,16.231 16.231,16.231 8.963,0 16.231,-7.268 16.231,-16.231 0,-8.963 -7.267,-16.231 -16.231,-16.231 z M 44.123,61.455 V 41.193 l 14.179,10.131 z"
                             fill="#3f9c51"
                             data-fill-palette-color="quaternary"
                             id="path29" /></g><g
                           fill="#3f9c51"
                           data-fill-palette-color="quaternary"
                           id="g35"><path
                             d="M 100,83.03 C 100,86.327 97.327,89 94.03,89 H 5.97 C 2.673,89 0,86.327 0,83.03 V 18.97 C 0,15.673 2.673,13 5.97,13 h 88.06 c 3.297,0 5.97,2.673 5.97,5.97 z M 5,18 V 83 H 94.034 L 94.03,18 Z"
                             fill="#3f9c51"
                             data-fill-palette-color="quaternary"
                             id="path33" /></g></g></g></svg>
                </g>
              </svg>
            </g>
          </svg>
        </g>
      </svg>
    </g>
  </g>
</svg>
