
 <svg xmlns="http://www.w3.org/2000/svg" version="1.1" xmlnsXlink="http://www.w3.org/1999/xlink"
    xmlnsSvgjs="http://svgjs.dev/svgjs" width="2000" height="409" viewBox="0 0 2000 409">
    <g transform="matrix(1,0,0,1,-1.2121212121212466,0.3052930088799428)">
        <svg viewBox="0 0 396 81" data-background-color="#317c40"
            preserveAspectRatio="xMidYMid meet" height="409" width="2000"
            xmlns="http://www.w3.org/2000/svg" xmlnsXlink="http://www.w3.org/1999/xlink">
            <g id="tight-bounds"
                transform="matrix(1,0,0,1,0.2400000000000091,-0.060461451636371066)">
                <svg viewBox="0 0 395.52 81.12065325060333" height="81.12065325060333"
                    width="395.52">
                    <g>
                        <svg viewBox="0 0 533.5314921355991 109.4266362555849"
                            height="81.12065325060333" width="395.52">
                            <g transform="matrix(1,0,0,1,138.0114921355991,24.442498688274892)">
                                <svg viewBox="0 0 395.52 60.54163887903511"
                                    height="60.54163887903511" width="395.52">
                                    <g>
                                        <svg viewBox="0 0 395.52 60.54163887903511"
                                            height="60.54163887903511" width="395.52">
                                            <g>
                                                <svg viewBox="0 0 395.52 60.54163887903511"
                                                    height="60.54163887903511" width="395.52">
                                                    <g transform="matrix(1,0,0,1,0,0)">
                                                        <svg width="395.52"
                                                            viewBox="2 -42.3 281.88 43.15"
                                                            height="60.54163887903511"
                                                            data-palette-color="#454545">
                                                            <path
                                                                d="M16.25-23.15L34.65-23.15 34.65-2.65Q31.65-0.95 28.15-0.05 24.65 0.85 21.6 0.85L21.6 0.85Q15.25 0.85 10.85-1.63 6.45-4.1 4.23-8.55 2-13 2-18.9L2-18.9Q2-24.5 4.13-28.95 6.25-33.4 10.65-36 15.05-38.6 21.6-38.6L21.6-38.6Q24.9-38.6 27.18-37.98 29.45-37.35 32.3-36.1L32.3-36.1 32.3-29Q29.75-30.4 27.28-31.13 24.8-31.85 21.6-31.85L21.6-31.85Q18.05-31.85 15.45-30.2 12.85-28.55 11.48-25.65 10.1-22.75 10.1-19.05L10.1-19.05Q10.1-13.1 13.13-9.5 16.15-5.9 21.6-5.9L21.6-5.9Q24.25-5.9 26.85-6.9L26.85-6.9 26.85-16.3 16.25-16.3 16.25-23.15ZM57.25-28.75L58.4-28.75 58.4-21.85 57.25-21.85Q53.3-21.85 49.4-18.95L49.4-18.95 49.4 0 41.7 0 41.7-28.15 49.4-28.15 49.4-25.45Q53.25-28.75 57.25-28.75L57.25-28.75ZM70.1-11.95Q71-5.6 78-5.6L78-5.6Q79.9-5.6 81.72-6.1 83.55-6.6 85.85-7.7L85.85-7.7 87.9-1.7Q85.35-0.3 82.82 0.28 80.3 0.85 77 0.85L77 0.85Q72.2 0.85 68.8-1.03 65.4-2.9 63.65-6.28 61.9-9.65 61.9-14.1L61.9-14.1Q61.9-18.8 63.7-22.15 65.5-25.5 68.6-27.23 71.7-28.95 75.5-28.95L75.5-28.95Q81.55-28.95 84.97-25.4 88.4-21.85 88.4-15L88.4-15 88.4-11.95 70.1-11.95ZM75.5-22.5Q73.4-22.5 72.07-21.4 70.75-20.3 70.25-17.8L70.25-17.8 80.35-17.8Q80.1-20.25 78.9-21.38 77.7-22.5 75.5-22.5L75.5-22.5ZM100.29-11.95Q101.19-5.6 108.19-5.6L108.19-5.6Q110.09-5.6 111.92-6.1 113.74-6.6 116.04-7.7L116.04-7.7 118.09-1.7Q115.54-0.3 113.02 0.28 110.49 0.85 107.19 0.85L107.19 0.85Q102.39 0.85 98.99-1.03 95.59-2.9 93.84-6.28 92.09-9.65 92.09-14.1L92.09-14.1Q92.09-18.8 93.89-22.15 95.69-25.5 98.79-27.23 101.89-28.95 105.69-28.95L105.69-28.95Q111.74-28.95 115.17-25.4 118.59-21.85 118.59-15L118.59-15 118.59-11.95 100.29-11.95ZM105.69-22.5Q103.59-22.5 102.27-21.4 100.94-20.3 100.44-17.8L100.44-17.8 110.54-17.8Q110.29-20.25 109.09-21.38 107.89-22.5 105.69-22.5L105.69-22.5ZM139.79-28.75Q145.29-28.75 148.02-25.93 150.74-23.1 150.74-16.9L150.74-16.9 150.74 0 143.04 0 143.04-16.9Q143.04-19.4 141.94-20.63 140.84-21.85 138.14-21.85L138.14-21.85Q134.94-21.85 131.74-19.2L131.74-19.2 131.74 0 124.04 0 124.04-28.15 131.74-28.15 131.74-25.7Q135.44-28.75 139.79-28.75L139.79-28.75ZM185.44-37.9L185.44-31.05 174.84-31.05 174.84 0 166.84 0 166.84-31.05 156.24-31.05 156.24-37.9 185.44-37.9ZM209.94-28.15L217.63-28.15 217.63 0 209.94 0 209.94-2.4Q206.19 0.6 201.88 0.6L201.88 0.6Q196.38 0.6 193.66-2.2 190.94-5 190.94-11.2L190.94-11.2 190.94-28.15 198.63-28.15 198.63-11.2Q198.63-8.7 199.76-7.48 200.88-6.25 203.53-6.25L203.53-6.25Q206.69-6.25 209.94-8.95L209.94-8.95 209.94-28.15ZM240.53-28.95Q244.28-28.95 247.18-27.28 250.08-25.6 251.71-22.25 253.33-18.9 253.33-14.05L253.33-14.05Q253.33-9.2 251.71-5.85 250.08-2.5 247.18-0.83 244.28 0.85 240.53 0.85L240.53 0.85Q236.58 0.85 232.83-2L232.83-2 232.83 0 225.13 0 225.13-42.3 232.83-42.3 232.83-26.05Q236.53-28.95 240.53-28.95L240.53-28.95ZM238.93-6Q242.08-6 243.71-8.05 245.33-10.1 245.33-14.05L245.33-14.05Q245.33-17.95 243.71-20 242.08-22.05 238.93-22.05L238.93-22.05Q235.93-22.05 232.83-19.8L232.83-19.8 232.83-8.3Q235.98-6 238.93-6L238.93-6ZM265.58-11.95Q266.48-5.6 273.48-5.6L273.48-5.6Q275.38-5.6 277.2-6.1 279.03-6.6 281.33-7.7L281.33-7.7 283.38-1.7Q280.83-0.3 278.31 0.28 275.78 0.85 272.48 0.85L272.48 0.85Q267.68 0.85 264.28-1.03 260.88-2.9 259.13-6.28 257.38-9.65 257.38-14.1L257.38-14.1Q257.38-18.8 259.18-22.15 260.98-25.5 264.08-27.23 267.18-28.95 270.98-28.95L270.98-28.95Q277.03-28.95 280.45-25.4 283.88-21.85 283.88-15L283.88-15 283.88-11.95 265.58-11.95ZM270.98-22.5Q268.88-22.5 267.56-21.4 266.23-20.3 265.73-17.8L265.73-17.8 275.83-17.8Q275.58-20.25 274.38-21.38 273.18-22.5 270.98-22.5L270.98-22.5Z"
                                                                opacity="1"
                                                                transform="matrix(1,0,0,1,0,0)"
                                                                fill="#454545"
                                                                class="undefined-text-0"
                                                                data-fill-palette-color="primary"
                                                                id="text-0"></path>
                                                        </svg>
                                                    </g>
                                                </svg>
                                            </g>
                                        </svg>
                                    </g>
                                </svg>
                            </g>
                            <g>
                                <svg viewBox="0 0 109.4266362555849 109.4266362555849"
                                    height="109.4266362555849" width="109.4266362555849">
                                    <g>
                                        <svg></svg>
                                    </g>
                                    <g id="icon-0">
                                        <svg viewBox="0 0 109.4266362555849 109.4266362555849"
                                            height="109.4266362555849" width="109.4266362555849">
                                            <g>
                                                <path
                                                    d="M0 54.713c0-30.217 24.496-54.713 54.713-54.713 30.217 0 54.713 24.496 54.714 54.713 0 30.217-24.496 54.713-54.714 54.714-30.217 0-54.713-24.496-54.713-54.714zM54.713 103.967c27.202 0 49.254-22.052 49.254-49.254 0-27.202-22.052-49.254-49.254-49.253-27.202 0-49.254 22.052-49.253 49.253 0 27.202 22.052 49.254 49.253 49.254z"
                                                    data-fill-palette-color="accent" fill="#454545"
                                                    stroke="transparent"></path>
                                                <ellipse rx="54.16618494651452"
                                                    ry="54.16618494651452" cx="54.71331812779245"
                                                    cy="54.71331812779245" fill="#454545"
                                                    stroke="transparent" stroke-width="0"
                                                    fill-opacity="1"
                                                    data-fill-palette-color="accent"></ellipse>
                                            </g>
                                            <g
                                                transform="matrix(1,0,0,1,24.08856921427968,31.438508953522746)">
                                                <svg
                                                    viewBox="0 0 61.249497827025536 46.549618348539404"
                                                    height="46.549618348539404"
                                                    width="61.249497827025536">
                                                    <g>
                                                        <svg xmlns="http://www.w3.org/2000/svg"
                                                            xmlns:xlink="http://www.w3.org/1999/xlink"
                                                            version="1.1" x="0" y="0"
                                                            viewBox="0 13 100 76"
                                                            enable-background="new 0 0 100 100"
                                                            xml:space="preserve"
                                                            height="46.549618348539404"
                                                            width="61.249497827025536"
                                                            class="icon-gn-0"
                                                            data-fill-palette-color="quaternary"
                                                            id="gn-0"><g fill="#3f9c51" data-fill-palette-color="quaternary"><g fill="#3f9c51" data-fill-palette-color="quaternary"><g fill="#3f9c51" data-fill-palette-color="quaternary"><path d="M49.72 35.093c-8.964 0-16.231 7.268-16.231 16.231s7.268 16.231 16.231 16.231 16.231-7.268 16.231-16.231S58.684 35.093 49.72 35.093zM44.123 61.455V41.193l14.179 10.131L44.123 61.455z" fill="#3f9c51" data-fill-palette-color="quaternary"></path></g><g fill="#3f9c51" data-fill-palette-color="quaternary"><path d="M100 83.03c0 3.297-2.673 5.97-5.97 5.97H5.97C2.673 89 0 86.327 0 83.03V18.97C0 15.673 2.673 13 5.97 13H94.03c3.297 0 5.97 2.673 5.97 5.97V83.03zM5 18v65h89.034L94.03 18H5z" fill="#3f9c51" data-fill-palette-color="quaternary"></path></g></g></g></svg>
                                                    </g>
                                                </svg>
                                            </g>
                                        </svg>
                                    </g>
                                </svg>
                            </g>
                        </svg>
                    </g>
                    <defs></defs>
                </svg>
                <rect width="395.52" height="81.12065325060333" fill="none" stroke="none"
                    visibility="hidden"></rect>
            </g>
        </svg>
    </g>
</svg>